<svg width="75" height="75" viewBox="0 0 75 75" fill="none" xmlns="http://www.w3.org/2000/svg">
<rect width="75" height="75" fill="url(#paint0_linear)"/>
<path d="M32.8303 21.696C32.9263 21.248 33.1023 20.928 33.3583 20.736C33.6463 20.512 33.9663 20.4 34.3183 20.4H40.6063C40.8943 20.4 41.1343 20.512 41.3263 20.736C41.5503 20.928 41.6623 21.168 41.6623 21.456L41.6143 21.84L35.4223 52.176C35.3583 52.624 35.0863 53.04 34.6063 53.424C34.1583 53.808 33.6303 54 33.0223 54H29.0383C28.4303 54 27.9183 53.824 27.5023 53.472C27.0863 53.088 26.7983 52.656 26.6383 52.176L23.0383 41.328L19.4383 52.176C19.2783 52.656 18.9903 53.088 18.5743 53.472C18.1583 53.824 17.6463 54 17.0383 54H13.0543C12.4463 54 11.9023 53.808 11.4223 53.424C10.9743 53.04 10.7183 52.624 10.6543 52.176L4.46231 21.84L4.41431 21.456C4.41431 21.168 4.51031 20.928 4.70231 20.736C4.92631 20.512 5.18231 20.4 5.47031 20.4H11.7583C12.1103 20.4 12.4143 20.512 12.6703 20.736C12.9583 20.928 13.1503 21.248 13.2463 21.696L16.3183 37.92L19.1503 29.232C19.4703 28.304 20.0143 27.84 20.7823 27.84H25.2943C26.0623 27.84 26.6063 28.304 26.9263 29.232L29.7583 37.92L32.8303 21.696ZM69.8878 46.32C70.2398 46.32 70.5438 46.448 70.7998 46.704C71.0558 46.96 71.1838 47.264 71.1838 47.616V52.704C71.1838 53.056 71.0558 53.36 70.7998 53.616C70.5438 53.872 70.2398 54 69.8878 54H47.6638C47.3118 54 47.0078 53.872 46.7518 53.616C46.4958 53.36 46.3678 53.056 46.3678 52.704V21.696C46.3678 21.344 46.4958 21.04 46.7518 20.784C47.0078 20.528 47.3118 20.4 47.6638 20.4H53.9518C54.3038 20.4 54.6078 20.528 54.8638 20.784C55.1198 21.04 55.2478 21.344 55.2478 21.696V46.32H69.8878Z" fill="#222222"/>
<defs>
<linearGradient id="paint0_linear" x1="-0.0392773" y1="37.5" x2="74.9607" y2="37.5" gradientUnits="userSpaceOnUse">
<stop stop-color="#00FFFF"/>
<stop offset="0.526042" stop-color="#00FF19"/>
<stop offset="1" stop-color="#FF0095"/>
</linearGradient>
</defs>
</svg>
